<svg width="39" height="59" viewBox="0 0 39 59" fill="none" xmlns="http://www.w3.org/2000/svg">
<path d="M9.48495 57.8723C9.07543 57.6962 8.73512 57.3863 8.51772 56.9914C8.30031 56.5965 8.21817 56.1391 8.28428 55.6914L11.9263 31.5386H2.26088C1.95446 31.547 1.65024 31.4836 1.37169 31.3532C1.09314 31.2229 0.847715 31.0291 0.654344 30.7869C0.460973 30.5446 0.324827 30.2604 0.256411 29.956C0.187996 29.6517 0.189139 29.3354 0.259753 29.0316L6.26314 2.53487C6.36878 2.07886 6.62543 1.67385 6.98991 1.388C7.35439 1.10215 7.80442 0.952929 8.26427 0.96545H28.2756C28.5745 0.964415 28.8699 1.03162 29.14 1.16212C29.4101 1.29263 29.6481 1.48311 29.8364 1.71959C30.0274 1.95873 30.1627 2.23889 30.232 2.53898C30.3013 2.83907 30.3029 3.15126 30.2367 3.45207L26.7747 19.3093H36.2801C36.6551 19.3086 37.0228 19.4152 37.3413 19.617C37.6597 19.8188 37.9161 20.1077 38.0811 20.4507C38.2245 20.78 38.2797 21.1421 38.241 21.5001C38.2023 21.8581 38.0712 22.1993 37.861 22.4889L11.8463 57.1385C11.6705 57.404 11.4357 57.6235 11.161 57.7793C10.8864 57.9351 10.5795 58.0228 10.2654 58.0353C9.99763 58.0302 9.73307 57.9749 9.48495 57.8723ZM21.7719 23.3858L25.7741 5.04187H9.86517L4.7823 27.4622H16.609L13.4272 48.415L32.2778 23.3858H21.7719Z" fill="#EC7979"/>
</svg>
