<svg width="59" height="41" viewBox="0 0 59 41" fill="none" xmlns="http://www.w3.org/2000/svg">
<path d="M51.6133 0.611694C53.3166 0.611694 54.95 1.28496 56.1544 2.48339C57.3588 3.68182 58.0354 5.30723 58.0354 7.00206V33.9978C58.0354 35.6926 57.3588 37.3181 56.1544 38.5165C54.95 39.7149 53.3166 40.3882 51.6133 40.3882H7.38683C6.54347 40.3882 5.70838 40.2229 4.92922 39.9017C4.15006 39.5806 3.4421 39.1099 2.84576 38.5165C2.24941 37.9231 1.77637 37.2186 1.45363 36.4433C1.13089 35.668 0.964783 34.837 0.964783 33.9978V7.00206C0.964783 5.30723 1.64139 3.68182 2.84576 2.48339C4.05012 1.28496 5.6836 0.611694 7.38683 0.611694H51.6133ZM51.6133 4.87194H7.38683C6.81909 4.87194 6.27459 5.09636 5.87314 5.49584C5.47168 5.89531 5.24615 6.43712 5.24615 7.00206V33.9978C5.24615 35.1736 6.20517 36.1279 7.38683 36.1279H51.6133C52.1811 36.1279 52.7256 35.9035 53.127 35.504C53.5285 35.1045 53.754 34.5627 53.754 33.9978V7.00206C53.754 6.43712 53.5285 5.89531 53.127 5.49584C52.7256 5.09636 52.1811 4.87194 51.6133 4.87194ZM14.5224 27.5932H44.492C45.0344 27.5934 45.5565 27.7984 45.9528 28.1669C46.3491 28.5353 46.5901 29.0397 46.627 29.5782C46.664 30.1166 46.4942 30.6489 46.1519 31.0676C45.8097 31.4863 45.3204 31.76 44.7831 31.8336L44.492 31.8535H14.5224C13.9801 31.8533 13.458 31.6483 13.0617 31.2798C12.6653 30.9114 12.4244 30.407 12.3874 29.8685C12.3504 29.3301 12.5202 28.7978 12.8625 28.3791C13.2048 27.9605 13.694 27.6867 14.2313 27.6131L14.5224 27.5932H44.492H14.5224ZM42.3513 17.6527C43.1083 17.6527 43.8343 17.9519 44.3696 18.4845C44.9048 19.0172 45.2056 19.7396 45.2056 20.4928C45.2056 21.2461 44.9048 21.9685 44.3696 22.5011C43.8343 23.0338 43.1083 23.333 42.3513 23.333C41.5943 23.333 40.8683 23.0338 40.3331 22.5011C39.7978 21.9685 39.4971 21.2461 39.4971 20.4928C39.4971 19.7396 39.7978 19.0172 40.3331 18.4845C40.8683 17.9519 41.5943 17.6527 42.3513 17.6527ZM25.2401 17.6527C25.9971 17.6527 26.7231 17.9519 27.2584 18.4845C27.7936 19.0172 28.0944 19.7396 28.0944 20.4928C28.0944 21.2461 27.7936 21.9685 27.2584 22.5011C26.7231 23.0338 25.9971 23.333 25.2401 23.333C24.4831 23.333 23.7571 23.0338 23.2219 22.5011C22.6866 21.9685 22.3859 21.2461 22.3859 20.4928C22.3859 19.7396 22.6866 19.0172 23.2219 18.4845C23.7571 17.9519 24.4831 17.6527 25.2401 17.6527ZM16.6774 17.6527C17.4344 17.6527 18.1604 17.9519 18.6956 18.4845C19.2309 19.0172 19.5316 19.7396 19.5316 20.4928C19.5316 21.2461 19.2309 21.9685 18.6956 22.5011C18.1604 23.0338 17.4344 23.333 16.6774 23.333C15.9204 23.333 15.1944 23.0338 14.6591 22.5011C14.1239 21.9685 13.8231 21.2461 13.8231 20.4928C13.8231 19.7396 14.1239 19.0172 14.6591 18.4845C15.1944 17.9519 15.9204 17.6527 16.6774 17.6527ZM33.8028 17.6527C34.5598 17.6527 35.2858 17.9519 35.8211 18.4845C36.3564 19.0172 36.6571 19.7396 36.6571 20.4928C36.6571 21.2461 36.3564 21.9685 35.8211 22.5011C35.2858 23.0338 34.5598 23.333 33.8028 23.333C33.0459 23.333 32.3199 23.0338 31.7846 22.5011C31.2493 21.9685 30.9486 21.2461 30.9486 20.4928C30.9486 19.7396 31.2493 19.0172 31.7846 18.4845C32.3199 17.9519 33.0459 17.6527 33.8028 17.6527ZM12.3818 9.13218C13.1387 9.13218 13.8647 9.43141 14.4 9.96405C14.9353 10.4967 15.236 11.2191 15.236 11.9723C15.236 12.7256 14.9353 13.448 14.4 13.9806C13.8647 14.5133 13.1387 14.8125 12.3818 14.8125C11.6248 14.8125 10.8988 14.5133 10.3635 13.9806C9.82823 13.448 9.52751 12.7256 9.52751 11.9723C9.52751 11.2191 9.82823 10.4967 10.3635 9.96405C10.8988 9.43141 11.6248 9.13218 12.3818 9.13218ZM20.9302 9.13218C21.6872 9.13218 22.4132 9.43141 22.9485 9.96405C23.4837 10.4967 23.7845 11.2191 23.7845 11.9723C23.7845 12.7256 23.4837 13.448 22.9485 13.9806C22.4132 14.5133 21.6872 14.8125 20.9302 14.8125C20.1732 14.8125 19.4472 14.5133 18.912 13.9806C18.3767 13.448 18.076 12.7256 18.076 11.9723C18.076 11.2191 18.3767 10.4967 18.912 9.96405C19.4472 9.43141 20.1732 9.13218 20.9302 9.13218ZM29.4929 9.13218C30.2499 9.13218 30.9759 9.43141 31.5112 9.96405C32.0465 10.4967 32.3472 11.2191 32.3472 11.9723C32.3472 12.7256 32.0465 13.448 31.5112 13.9806C30.9759 14.5133 30.2499 14.8125 29.4929 14.8125C28.7359 14.8125 28.01 14.5133 27.4747 13.9806C26.9394 13.448 26.6387 12.7256 26.6387 11.9723C26.6387 11.2191 26.9394 10.4967 27.4747 9.96405C28.01 9.43141 28.7359 9.13218 29.4929 9.13218ZM38.0557 9.13218C38.8127 9.13218 39.5387 9.43141 40.0739 9.96405C40.6092 10.4967 40.9099 11.2191 40.9099 11.9723C40.9099 12.7256 40.6092 13.448 40.0739 13.9806C39.5387 14.5133 38.8127 14.8125 38.0557 14.8125C37.2987 14.8125 36.5727 14.5133 36.0374 13.9806C35.5021 13.448 35.2014 12.7256 35.2014 11.9723C35.2014 11.2191 35.5021 10.4967 36.0374 9.96405C36.5727 9.43141 37.2987 9.13218 38.0557 9.13218ZM46.6184 9.13218C47.3754 9.13218 48.1014 9.43141 48.6367 9.96405C49.1719 10.4967 49.4726 11.2191 49.4726 11.9723C49.4726 12.7256 49.1719 13.448 48.6367 13.9806C48.1014 14.5133 47.3754 14.8125 46.6184 14.8125C45.8614 14.8125 45.1354 14.5133 44.6001 13.9806C44.0649 13.448 43.7642 12.7256 43.7642 11.9723C43.7642 11.2191 44.0649 10.4967 44.6001 9.96405C45.1354 9.43141 45.8614 9.13218 46.6184 9.13218Z" fill="#EC7979"/>
</svg>
