<svg width="65" height="65" viewBox="0 0 65 65" fill="none" xmlns="http://www.w3.org/2000/svg">
<path d="M25.17 48.1824H39.8269H25.17ZM32.5 4.27148V7.40798V4.27148ZM52.4607 12.5393L50.2432 14.7568L52.4607 12.5393ZM60.7285 32.5H57.592H60.7285ZM7.40804 32.5H4.27155H7.40804ZM14.7568 14.7568L12.5393 12.5393L14.7568 14.7568ZM21.4094 43.5906C19.2165 41.3972 17.7233 38.6028 17.1186 35.5609C16.5138 32.5189 16.8246 29.3659 18.0117 26.5005C19.1988 23.6351 21.2088 21.1861 23.7877 19.4631C26.3666 17.7401 29.3985 16.8204 32.5 16.8204C35.6015 16.8204 38.6334 17.7401 41.2123 19.4631C43.7912 21.1861 45.8012 23.6351 46.9883 26.5005C48.1754 29.3659 48.4862 32.5189 47.8814 35.5609C47.2767 38.6028 45.7835 41.3972 43.5907 43.5906L41.8719 45.3063C40.8892 46.2891 40.1098 47.4558 39.5781 48.7399C39.0464 50.0239 38.7728 51.4002 38.773 52.7899V54.4554C38.773 56.1191 38.1121 57.7147 36.9357 58.8911C35.7593 60.0675 34.1637 60.7284 32.5 60.7284C30.8363 60.7284 29.2407 60.0675 28.0643 58.8911C26.8879 57.7147 26.227 56.1191 26.227 54.4554V52.7899C26.227 49.9828 25.1104 47.2885 23.1282 45.3063L21.4094 43.5906Z" stroke="#EC7979" stroke-width="6.83333" stroke-linecap="round" stroke-linejoin="round"/>
</svg>
